<?xml version="1.0" standalone="no"?>
<!DOCTYPE svg PUBLIC "-//W3C//DTD SVG 20010904//EN"
 "http://www.w3.org/TR/2001/REC-SVG-20010904/DTD/svg10.dtd">
<svg version="1.0" xmlns="http://www.w3.org/2000/svg"
 width="256.000000pt" height="256.000000pt" viewBox="0 0 256.000000 256.000000"
 preserveAspectRatio="xMidYMid meet">
<metadata>
Created by potrace 1.14, written by Peter Selinger 2001-2017
</metadata>
<g transform="translate(0.000000,256.000000) scale(0.100000,-0.100000)"
fill="#000000" stroke="none">
<path d="M420 2186 l-415 -131 -3 -367 c-3 -408 -3 -404 62 -394 17 2 72 8
121 11 50 4 99 9 109 11 62 11 174 14 199 5 54 -21 56 -33 56 -541 0 -256 0
-482 0 -502 l1 -38 733 0 732 0 0 519 0 519 30 27 c29 25 34 26 114 20 46 -3
98 -8 115 -10 17 -2 58 -7 91 -9 33 -3 83 -8 112 -11 87 -9 83 -28 83 393 l0
367 -80 24 c-43 13 -82 23 -84 23 -3 -1 -26 7 -51 18 -25 11 -47 20 -50 20 -8
0 -20 3 -75 20 -25 7 -47 14 -50 15 -3 0 -30 9 -60 20 -30 10 -56 17 -58 17
-1 -1 -18 4 -37 12 -20 9 -39 15 -43 16 -4 0 -36 10 -72 21 -36 11 -72 22 -80
24 -8 2 -35 11 -59 19 -24 9 -45 15 -47 14 -1 -2 -5 -21 -8 -43 -11 -73 -15
-85 -40 -138 -43 -90 -155 -177 -266 -205 -99 -26 -236 -15 -301 22 -14 9 -29
13 -33 9 -3 -3 -6 0 -6 7 0 7 -3 11 -6 7 -12 -12 -118 85 -148 138 -28 46 -61
159 -52 174 22 35 -44 20 -434 -103z"/>
</g>
</svg>
